<?xml version="1.0" encoding="utf-8" standalone="no"?>
<!DOCTYPE svg PUBLIC "-//W3C//DTD SVG 1.1//EN"
  "http://www.w3.org/Graphics/SVG/1.1/DTD/svg11.dtd">
<!-- Created with matplotlib (http://matplotlib.org/) -->
<svg height="432pt" version="1.1" viewBox="0 0 432 432" width="432pt" xmlns="http://www.w3.org/2000/svg" xmlns:xlink="http://www.w3.org/1999/xlink">
 <defs>
  <style type="text/css">
*{stroke-linecap:butt;stroke-linejoin:round;}
  </style>
 </defs>
 <g id="figure_1">
  <g id="patch_1">
   <path d="M 0 432 
L 432 432 
L 432 0 
L 0 0 
z
" style="fill:#ffffff;"/>
  </g>
  <g id="axes_1">
   <g id="PatchCollection_1">
    <path clip-path="url(#pff0625f6fb)" d="M 293.753159 287.273159 
L 299.805619 281.906132 
L 297.590819 280.627417 
L 320.236807 241.403414 
L 320.236253 241.403094 
z
" style="fill:#1f77b4;fill-opacity:0.8;stroke:#2b5d0a;stroke-opacity:0.8;stroke-width:0.5;"/>
    <path clip-path="url(#pff0625f6fb)" d="M 247.883094 313.756253 
L 255.808192 312.134502 
L 254.529476 309.919701 
L 293.753479 287.273713 
L 293.753159 287.273159 
z
" style="fill:#1f77b4;fill-opacity:0.8;stroke:#2b5d0a;stroke-opacity:0.8;stroke-width:0.5;"/>
    <path clip-path="url(#pff0625f6fb)" d="M 194.916906 313.756253 
L 202.591117 316.314324 
L 202.591117 313.756893 
L 247.883094 313.756893 
L 247.883094 313.756253 
z
" style="fill:#1f77b4;fill-opacity:0.8;stroke:#2b5d0a;stroke-opacity:0.8;stroke-width:0.5;"/>
    <path clip-path="url(#pff0625f6fb)" d="M 149.046841 287.273159 
L 154.413868 293.325619 
L 155.692583 291.110819 
L 194.916586 313.756807 
L 194.916906 313.756253 
z
" style="fill:#1f77b4;fill-opacity:0.8;stroke:#2b5d0a;stroke-opacity:0.8;stroke-width:0.5;"/>
    <path clip-path="url(#pff0625f6fb)" d="M 122.563747 241.403094 
L 124.185498 249.328192 
L 126.400299 248.049476 
L 149.046287 287.273479 
L 149.046841 287.273159 
z
" style="fill:#1f77b4;fill-opacity:0.8;stroke:#2b5d0a;stroke-opacity:0.8;stroke-width:0.5;"/>
    <path clip-path="url(#pff0625f6fb)" d="M 122.563747 188.436906 
L 120.005676 196.111117 
L 122.563107 196.111117 
L 122.563107 241.403094 
L 122.563747 241.403094 
z
" style="fill:#1f77b4;fill-opacity:0.8;stroke:#2b5d0a;stroke-opacity:0.8;stroke-width:0.5;"/>
    <path clip-path="url(#pff0625f6fb)" d="M 149.046841 142.566841 
L 142.994381 147.933868 
L 145.209181 149.212583 
L 122.563193 188.436586 
L 122.563747 188.436906 
z
" style="fill:#1f77b4;fill-opacity:0.8;stroke:#2b5d0a;stroke-opacity:0.8;stroke-width:0.5;"/>
    <path clip-path="url(#pff0625f6fb)" d="M 194.916906 116.083747 
L 186.991808 117.705498 
L 188.270524 119.920299 
L 149.046521 142.566287 
L 149.046841 142.566841 
z
" style="fill:#1f77b4;fill-opacity:0.8;stroke:#2b5d0a;stroke-opacity:0.8;stroke-width:0.5;"/>
    <path clip-path="url(#pff0625f6fb)" d="M 247.883094 116.083747 
L 240.208883 113.525676 
L 240.208883 116.083107 
L 194.916906 116.083107 
L 194.916906 116.083747 
z
" style="fill:#1f77b4;fill-opacity:0.8;stroke:#2b5d0a;stroke-opacity:0.8;stroke-width:0.5;"/>
    <path clip-path="url(#pff0625f6fb)" d="M 293.753159 142.566841 
L 288.386132 136.514381 
L 287.107417 138.729181 
L 247.883414 116.083193 
L 247.883094 116.083747 
z
" style="fill:#1f77b4;fill-opacity:0.8;stroke:#2b5d0a;stroke-opacity:0.8;stroke-width:0.5;"/>
    <path clip-path="url(#pff0625f6fb)" d="M 320.236253 188.436906 
L 318.614502 180.511808 
L 316.399701 181.790524 
L 293.753713 142.566521 
L 293.753159 142.566841 
z
" style="fill:#1f77b4;fill-opacity:0.8;stroke:#2b5d0a;stroke-opacity:0.8;stroke-width:0.5;"/>
    <path clip-path="url(#pff0625f6fb)" d="M 320.236253 241.403094 
L 322.794324 233.728883 
L 320.236893 233.728883 
L 320.236893 188.436906 
L 320.236253 188.436906 
z
" style="fill:#1f77b4;fill-opacity:0.8;stroke:#2b5d0a;stroke-opacity:0.8;stroke-width:0.5;"/>
    <path clip-path="url(#pff0625f6fb)" d="M 369.65438 254.644641 
L 363.60192 260.011668 
L 365.81672 261.290384 
L 329.929185 323.449419 
L 329.929739 323.449739 
z
" style="fill:#1f77b4;fill-opacity:0.8;stroke:#2b5d0a;stroke-opacity:0.8;stroke-width:0.5;"/>
    <path clip-path="url(#pff0625f6fb)" d="M 329.929739 323.449739 
L 322.004641 325.07149 
L 323.283357 327.28629 
L 261.124322 363.173826 
L 261.124641 363.17438 
z
" style="fill:#1f77b4;fill-opacity:0.8;stroke:#2b5d0a;stroke-opacity:0.8;stroke-width:0.5;"/>
    <path clip-path="url(#pff0625f6fb)" d="M 261.124641 363.17438 
L 253.45043 360.616309 
L 253.45043 363.17374 
L 181.675359 363.17374 
L 181.675359 363.17438 
z
" style="fill:#1f77b4;fill-opacity:0.8;stroke:#2b5d0a;stroke-opacity:0.8;stroke-width:0.5;"/>
    <path clip-path="url(#pff0625f6fb)" d="M 181.675359 363.17438 
L 176.308332 357.12192 
L 175.029616 359.33672 
L 112.870581 323.449185 
L 112.870261 323.449739 
z
" style="fill:#1f77b4;fill-opacity:0.8;stroke:#2b5d0a;stroke-opacity:0.8;stroke-width:0.5;"/>
    <path clip-path="url(#pff0625f6fb)" d="M 112.870261 323.449739 
L 111.24851 315.524641 
L 109.03371 316.803357 
L 73.146174 254.644322 
L 73.14562 254.644641 
z
" style="fill:#1f77b4;fill-opacity:0.8;stroke:#2b5d0a;stroke-opacity:0.8;stroke-width:0.5;"/>
    <path clip-path="url(#pff0625f6fb)" d="M 73.14562 254.644641 
L 75.703691 246.97043 
L 73.14626 246.97043 
L 73.14626 175.195359 
L 73.14562 175.195359 
z
" style="fill:#1f77b4;fill-opacity:0.8;stroke:#2b5d0a;stroke-opacity:0.8;stroke-width:0.5;"/>
    <path clip-path="url(#pff0625f6fb)" d="M 73.14562 175.195359 
L 79.19808 169.828332 
L 76.98328 168.549616 
L 112.870815 106.390581 
L 112.870261 106.390261 
z
" style="fill:#1f77b4;fill-opacity:0.8;stroke:#2b5d0a;stroke-opacity:0.8;stroke-width:0.5;"/>
    <path clip-path="url(#pff0625f6fb)" d="M 112.870261 106.390261 
L 120.795359 104.76851 
L 119.516643 102.55371 
L 181.675678 66.666174 
L 181.675359 66.66562 
z
" style="fill:#1f77b4;fill-opacity:0.8;stroke:#2b5d0a;stroke-opacity:0.8;stroke-width:0.5;"/>
    <path clip-path="url(#pff0625f6fb)" d="M 181.675359 66.66562 
L 189.34957 69.223691 
L 189.34957 66.66626 
L 261.124641 66.66626 
L 261.124641 66.66562 
z
" style="fill:#1f77b4;fill-opacity:0.8;stroke:#2b5d0a;stroke-opacity:0.8;stroke-width:0.5;"/>
    <path clip-path="url(#pff0625f6fb)" d="M 261.124641 66.66562 
L 266.491668 72.71808 
L 267.770384 70.50328 
L 329.929419 106.390815 
L 329.929739 106.390261 
z
" style="fill:#1f77b4;fill-opacity:0.8;stroke:#2b5d0a;stroke-opacity:0.8;stroke-width:0.5;"/>
    <path clip-path="url(#pff0625f6fb)" d="M 329.929739 106.390261 
L 331.55149 114.315359 
L 333.76629 113.036643 
L 369.653826 175.195678 
L 369.65438 175.195359 
z
" style="fill:#1f77b4;fill-opacity:0.8;stroke:#2b5d0a;stroke-opacity:0.8;stroke-width:0.5;"/>
    <path clip-path="url(#pff0625f6fb)" d="M 369.65438 175.195359 
L 367.096309 182.86957 
L 369.65374 182.86957 
L 369.65374 254.644641 
L 369.65438 254.644641 
z
" style="fill:#1f77b4;fill-opacity:0.8;stroke:#2b5d0a;stroke-opacity:0.8;stroke-width:0.5;"/>
    <path clip-path="url(#pff0625f6fb)" d="M 320.236253 241.403094 
L 326.986895 245.860233 
L 327.648807 243.389944 
L 369.654214 254.645259 
L 369.65438 254.644641 
z
" style="fill:#1f77b4;fill-opacity:0.8;stroke:#2b5d0a;stroke-opacity:0.8;stroke-width:0.5;"/>
    <path clip-path="url(#pff0625f6fb)" d="M 293.753159 287.273159 
L 297.370817 294.508475 
L 299.179194 292.700098 
L 329.929286 323.450191 
L 329.929739 323.449739 
z
" style="fill:#1f77b4;fill-opacity:0.8;stroke:#2b5d0a;stroke-opacity:0.8;stroke-width:0.5;"/>
    <path clip-path="url(#pff0625f6fb)" d="M 247.883094 313.756253 
L 247.39842 321.83105 
L 249.868709 321.169138 
L 261.124024 363.174545 
L 261.124641 363.17438 
z
" style="fill:#1f77b4;fill-opacity:0.8;stroke:#2b5d0a;stroke-opacity:0.8;stroke-width:0.5;"/>
    <path clip-path="url(#pff0625f6fb)" d="M 194.916906 313.756253 
L 190.459767 320.506895 
L 192.930056 321.168807 
L 181.674741 363.174214 
L 181.675359 363.17438 
z
" style="fill:#1f77b4;fill-opacity:0.8;stroke:#2b5d0a;stroke-opacity:0.8;stroke-width:0.5;"/>
    <path clip-path="url(#pff0625f6fb)" d="M 149.046841 287.273159 
L 141.811525 290.890817 
L 143.619902 292.699194 
L 112.869809 323.449286 
L 112.870261 323.449739 
z
" style="fill:#1f77b4;fill-opacity:0.8;stroke:#2b5d0a;stroke-opacity:0.8;stroke-width:0.5;"/>
    <path clip-path="url(#pff0625f6fb)" d="M 122.563747 241.403094 
L 114.48895 240.91842 
L 115.150862 243.388709 
L 73.145455 254.644024 
L 73.14562 254.644641 
z
" style="fill:#1f77b4;fill-opacity:0.8;stroke:#2b5d0a;stroke-opacity:0.8;stroke-width:0.5;"/>
    <path clip-path="url(#pff0625f6fb)" d="M 122.563747 188.436906 
L 115.813105 183.979767 
L 115.151193 186.450056 
L 73.145786 175.194741 
L 73.14562 175.195359 
z
" style="fill:#1f77b4;fill-opacity:0.8;stroke:#2b5d0a;stroke-opacity:0.8;stroke-width:0.5;"/>
    <path clip-path="url(#pff0625f6fb)" d="M 149.046841 142.566841 
L 145.429183 135.331525 
L 143.620806 137.139902 
L 112.870714 106.389809 
L 112.870261 106.390261 
z
" style="fill:#1f77b4;fill-opacity:0.8;stroke:#2b5d0a;stroke-opacity:0.8;stroke-width:0.5;"/>
    <path clip-path="url(#pff0625f6fb)" d="M 194.916906 116.083747 
L 195.40158 108.00895 
L 192.931291 108.670862 
L 181.675976 66.665455 
L 181.675359 66.66562 
z
" style="fill:#1f77b4;fill-opacity:0.8;stroke:#2b5d0a;stroke-opacity:0.8;stroke-width:0.5;"/>
    <path clip-path="url(#pff0625f6fb)" d="M 247.883094 116.083747 
L 252.340233 109.333105 
L 249.869944 108.671193 
L 261.125259 66.665786 
L 261.124641 66.66562 
z
" style="fill:#1f77b4;fill-opacity:0.8;stroke:#2b5d0a;stroke-opacity:0.8;stroke-width:0.5;"/>
    <path clip-path="url(#pff0625f6fb)" d="M 293.753159 142.566841 
L 300.988475 138.949183 
L 299.180098 137.140806 
L 329.930191 106.390714 
L 329.929739 106.390261 
z
" style="fill:#1f77b4;fill-opacity:0.8;stroke:#2b5d0a;stroke-opacity:0.8;stroke-width:0.5;"/>
    <path clip-path="url(#pff0625f6fb)" d="M 320.236253 188.436906 
L 328.31105 188.92158 
L 327.649138 186.451291 
L 369.654545 175.195976 
L 369.65438 175.195359 
z
" style="fill:#1f77b4;fill-opacity:0.8;stroke:#2b5d0a;stroke-opacity:0.8;stroke-width:0.5;"/>
    <path clip-path="url(#pff0625f6fb)" d="M 329.929739 323.449739 
L 326.312081 316.214423 
L 324.503704 318.022799 
L 293.753611 287.272707 
L 293.753159 287.273159 
z
" style="fill:#1f77b4;fill-opacity:0.8;stroke:#2b5d0a;stroke-opacity:0.8;stroke-width:0.5;"/>
    <path clip-path="url(#pff0625f6fb)" d="M 261.124641 363.17438 
L 261.609316 355.099584 
L 259.139027 355.761495 
L 247.883712 313.756088 
L 247.883094 313.756253 
z
" style="fill:#1f77b4;fill-opacity:0.8;stroke:#2b5d0a;stroke-opacity:0.8;stroke-width:0.5;"/>
    <path clip-path="url(#pff0625f6fb)" d="M 181.675359 363.17438 
L 186.132497 356.423738 
L 183.662208 355.761826 
L 194.917523 313.756419 
L 194.916906 313.756253 
z
" style="fill:#1f77b4;fill-opacity:0.8;stroke:#2b5d0a;stroke-opacity:0.8;stroke-width:0.5;"/>
    <path clip-path="url(#pff0625f6fb)" d="M 112.870261 323.449739 
L 120.105577 319.832081 
L 118.297201 318.023704 
L 149.047293 287.273611 
L 149.046841 287.273159 
z
" style="fill:#1f77b4;fill-opacity:0.8;stroke:#2b5d0a;stroke-opacity:0.8;stroke-width:0.5;"/>
    <path clip-path="url(#pff0625f6fb)" d="M 73.14562 254.644641 
L 81.220416 255.129316 
L 80.558505 252.659027 
L 122.563912 241.403712 
L 122.563747 241.403094 
z
" style="fill:#1f77b4;fill-opacity:0.8;stroke:#2b5d0a;stroke-opacity:0.8;stroke-width:0.5;"/>
    <path clip-path="url(#pff0625f6fb)" d="M 73.14562 175.195359 
L 79.896262 179.652497 
L 80.558174 177.182208 
L 122.563581 188.437523 
L 122.563747 188.436906 
z
" style="fill:#1f77b4;fill-opacity:0.8;stroke:#2b5d0a;stroke-opacity:0.8;stroke-width:0.5;"/>
    <path clip-path="url(#pff0625f6fb)" d="M 112.870261 106.390261 
L 116.487919 113.625577 
L 118.296296 111.817201 
L 149.046389 142.567293 
L 149.046841 142.566841 
z
" style="fill:#1f77b4;fill-opacity:0.8;stroke:#2b5d0a;stroke-opacity:0.8;stroke-width:0.5;"/>
    <path clip-path="url(#pff0625f6fb)" d="M 181.675359 66.66562 
L 181.190684 74.740416 
L 183.660973 74.078505 
L 194.916288 116.083912 
L 194.916906 116.083747 
z
" style="fill:#1f77b4;fill-opacity:0.8;stroke:#2b5d0a;stroke-opacity:0.8;stroke-width:0.5;"/>
    <path clip-path="url(#pff0625f6fb)" d="M 261.124641 66.66562 
L 256.667503 73.416262 
L 259.137792 74.078174 
L 247.882477 116.083581 
L 247.883094 116.083747 
z
" style="fill:#1f77b4;fill-opacity:0.8;stroke:#2b5d0a;stroke-opacity:0.8;stroke-width:0.5;"/>
    <path clip-path="url(#pff0625f6fb)" d="M 329.929739 106.390261 
L 322.694423 110.007919 
L 324.502799 111.816296 
L 293.752707 142.566389 
L 293.753159 142.566841 
z
" style="fill:#1f77b4;fill-opacity:0.8;stroke:#2b5d0a;stroke-opacity:0.8;stroke-width:0.5;"/>
    <path clip-path="url(#pff0625f6fb)" d="M 369.65438 175.195359 
L 361.579584 174.710684 
L 362.241495 177.180973 
L 320.236088 188.436288 
L 320.236253 188.436906 
z
" style="fill:#1f77b4;fill-opacity:0.8;stroke:#2b5d0a;stroke-opacity:0.8;stroke-width:0.5;"/>
    <path clip-path="url(#pff0625f6fb)" d="M 369.65438 254.644641 
L 362.903738 250.187503 
L 362.241826 252.657792 
L 320.236419 241.402477 
L 320.236253 241.403094 
z
" style="fill:#1f77b4;fill-opacity:0.8;stroke:#2b5d0a;stroke-opacity:0.8;stroke-width:0.5;"/>
   </g>
   <g id="text_1">
    <!-- 0 -->
    <defs>
     <path d="M 31.78125 66.40625 
Q 24.171875 66.40625 20.328125 58.90625 
Q 16.5 51.421875 16.5 36.375 
Q 16.5 21.390625 20.328125 13.890625 
Q 24.171875 6.390625 31.78125 6.390625 
Q 39.453125 6.390625 43.28125 13.890625 
Q 47.125 21.390625 47.125 36.375 
Q 47.125 51.421875 43.28125 58.90625 
Q 39.453125 66.40625 31.78125 66.40625 
z
M 31.78125 74.21875 
Q 44.046875 74.21875 50.515625 64.515625 
Q 56.984375 54.828125 56.984375 36.375 
Q 56.984375 17.96875 50.515625 8.265625 
Q 44.046875 -1.421875 31.78125 -1.421875 
Q 19.53125 -1.421875 13.0625 8.265625 
Q 6.59375 17.96875 6.59375 36.375 
Q 6.59375 54.828125 13.0625 64.515625 
Q 19.53125 74.21875 31.78125 74.21875 
z
" id="DejaVuSans-30"/>
    </defs>
    <g transform="translate(307.881722 238.092707)scale(0.1 -0.1)">
     <use xlink:href="#DejaVuSans-30"/>
    </g>
   </g>
   <g id="text_2">
    <!-- 1 -->
    <defs>
     <path d="M 12.40625 8.296875 
L 28.515625 8.296875 
L 28.515625 63.921875 
L 10.984375 60.40625 
L 10.984375 69.390625 
L 28.421875 72.90625 
L 38.28125 72.90625 
L 38.28125 8.296875 
L 54.390625 8.296875 
L 54.390625 0 
L 12.40625 0 
z
" id="DejaVuSans-31"/>
    </defs>
    <g transform="translate(284.709014 278.229014)scale(0.1 -0.1)">
     <use xlink:href="#DejaVuSans-31"/>
    </g>
   </g>
   <g id="text_3">
    <!-- 2 -->
    <defs>
     <path d="M 19.1875 8.296875 
L 53.609375 8.296875 
L 53.609375 0 
L 7.328125 0 
L 7.328125 8.296875 
Q 12.9375 14.109375 22.625 23.890625 
Q 32.328125 33.6875 34.8125 36.53125 
Q 39.546875 41.84375 41.421875 45.53125 
Q 43.3125 49.21875 43.3125 52.78125 
Q 43.3125 58.59375 39.234375 62.25 
Q 35.15625 65.921875 28.609375 65.921875 
Q 23.96875 65.921875 18.8125 64.3125 
Q 13.671875 62.703125 7.8125 59.421875 
L 7.8125 69.390625 
Q 13.765625 71.78125 18.9375 73 
Q 24.125 74.21875 28.421875 74.21875 
Q 39.75 74.21875 46.484375 68.546875 
Q 53.21875 62.890625 53.21875 53.421875 
Q 53.21875 48.921875 51.53125 44.890625 
Q 49.859375 40.875 45.40625 35.40625 
Q 44.1875 33.984375 37.640625 27.21875 
Q 31.109375 20.453125 19.1875 8.296875 
z
" id="DejaVuSans-32"/>
    </defs>
    <g transform="translate(244.572707 301.401722)scale(0.1 -0.1)">
     <use xlink:href="#DejaVuSans-32"/>
    </g>
   </g>
   <g id="text_4">
    <!-- 3 -->
    <defs>
     <path d="M 40.578125 39.3125 
Q 47.65625 37.796875 51.625 33 
Q 55.609375 28.21875 55.609375 21.1875 
Q 55.609375 10.40625 48.1875 4.484375 
Q 40.765625 -1.421875 27.09375 -1.421875 
Q 22.515625 -1.421875 17.65625 -0.515625 
Q 12.796875 0.390625 7.625 2.203125 
L 7.625 11.71875 
Q 11.71875 9.328125 16.59375 8.109375 
Q 21.484375 6.890625 26.8125 6.890625 
Q 36.078125 6.890625 40.9375 10.546875 
Q 45.796875 14.203125 45.796875 21.1875 
Q 45.796875 27.640625 41.28125 31.265625 
Q 36.765625 34.90625 28.71875 34.90625 
L 20.21875 34.90625 
L 20.21875 43.015625 
L 29.109375 43.015625 
Q 36.375 43.015625 40.234375 45.921875 
Q 44.09375 48.828125 44.09375 54.296875 
Q 44.09375 59.90625 40.109375 62.90625 
Q 36.140625 65.921875 28.71875 65.921875 
Q 24.65625 65.921875 20.015625 65.03125 
Q 15.375 64.15625 9.8125 62.3125 
L 9.8125 71.09375 
Q 15.4375 72.65625 20.34375 73.4375 
Q 25.25 74.21875 29.59375 74.21875 
Q 40.828125 74.21875 47.359375 69.109375 
Q 53.90625 64.015625 53.90625 55.328125 
Q 53.90625 49.265625 50.4375 45.09375 
Q 46.96875 40.921875 40.578125 39.3125 
z
" id="DejaVuSans-33"/>
    </defs>
    <g transform="translate(198.227293 301.401722)scale(0.1 -0.1)">
     <use xlink:href="#DejaVuSans-33"/>
    </g>
   </g>
   <g id="text_5">
    <!-- 4 -->
    <defs>
     <path d="M 37.796875 64.3125 
L 12.890625 25.390625 
L 37.796875 25.390625 
z
M 35.203125 72.90625 
L 47.609375 72.90625 
L 47.609375 25.390625 
L 58.015625 25.390625 
L 58.015625 17.1875 
L 47.609375 17.1875 
L 47.609375 0 
L 37.796875 0 
L 37.796875 17.1875 
L 4.890625 17.1875 
L 4.890625 26.703125 
z
" id="DejaVuSans-34"/>
    </defs>
    <g transform="translate(158.090986 278.229014)scale(0.1 -0.1)">
     <use xlink:href="#DejaVuSans-34"/>
    </g>
   </g>
   <g id="text_6">
    <!-- 5 -->
    <defs>
     <path d="M 10.796875 72.90625 
L 49.515625 72.90625 
L 49.515625 64.59375 
L 19.828125 64.59375 
L 19.828125 46.734375 
Q 21.96875 47.46875 24.109375 47.828125 
Q 26.265625 48.1875 28.421875 48.1875 
Q 40.625 48.1875 47.75 41.5 
Q 54.890625 34.8125 54.890625 23.390625 
Q 54.890625 11.625 47.5625 5.09375 
Q 40.234375 -1.421875 26.90625 -1.421875 
Q 22.3125 -1.421875 17.546875 -0.640625 
Q 12.796875 0.140625 7.71875 1.703125 
L 7.71875 11.625 
Q 12.109375 9.234375 16.796875 8.0625 
Q 21.484375 6.890625 26.703125 6.890625 
Q 35.15625 6.890625 40.078125 11.328125 
Q 45.015625 15.765625 45.015625 23.390625 
Q 45.015625 31 40.078125 35.4375 
Q 35.15625 39.890625 26.703125 39.890625 
Q 22.75 39.890625 18.8125 39.015625 
Q 14.890625 38.140625 10.796875 36.28125 
z
" id="DejaVuSans-35"/>
    </defs>
    <g transform="translate(134.918278 238.092707)scale(0.1 -0.1)">
     <use xlink:href="#DejaVuSans-35"/>
    </g>
   </g>
   <g id="text_7">
    <!-- 6 -->
    <defs>
     <path d="M 33.015625 40.375 
Q 26.375 40.375 22.484375 35.828125 
Q 18.609375 31.296875 18.609375 23.390625 
Q 18.609375 15.53125 22.484375 10.953125 
Q 26.375 6.390625 33.015625 6.390625 
Q 39.65625 6.390625 43.53125 10.953125 
Q 47.40625 15.53125 47.40625 23.390625 
Q 47.40625 31.296875 43.53125 35.828125 
Q 39.65625 40.375 33.015625 40.375 
z
M 52.59375 71.296875 
L 52.59375 62.3125 
Q 48.875 64.0625 45.09375 64.984375 
Q 41.3125 65.921875 37.59375 65.921875 
Q 27.828125 65.921875 22.671875 59.328125 
Q 17.53125 52.734375 16.796875 39.40625 
Q 19.671875 43.65625 24.015625 45.921875 
Q 28.375 48.1875 33.59375 48.1875 
Q 44.578125 48.1875 50.953125 41.515625 
Q 57.328125 34.859375 57.328125 23.390625 
Q 57.328125 12.15625 50.6875 5.359375 
Q 44.046875 -1.421875 33.015625 -1.421875 
Q 20.359375 -1.421875 13.671875 8.265625 
Q 6.984375 17.96875 6.984375 36.375 
Q 6.984375 53.65625 15.1875 63.9375 
Q 23.390625 74.21875 37.203125 74.21875 
Q 40.921875 74.21875 44.703125 73.484375 
Q 48.484375 72.75 52.59375 71.296875 
z
" id="DejaVuSans-36"/>
    </defs>
    <g transform="translate(134.918278 191.747293)scale(0.1 -0.1)">
     <use xlink:href="#DejaVuSans-36"/>
    </g>
   </g>
   <g id="text_8">
    <!-- 7 -->
    <defs>
     <path d="M 8.203125 72.90625 
L 55.078125 72.90625 
L 55.078125 68.703125 
L 28.609375 0 
L 18.3125 0 
L 43.21875 64.59375 
L 8.203125 64.59375 
z
" id="DejaVuSans-37"/>
    </defs>
    <g transform="translate(158.090986 151.610986)scale(0.1 -0.1)">
     <use xlink:href="#DejaVuSans-37"/>
    </g>
   </g>
   <g id="text_9">
    <!-- 8 -->
    <defs>
     <path d="M 31.78125 34.625 
Q 24.75 34.625 20.71875 30.859375 
Q 16.703125 27.09375 16.703125 20.515625 
Q 16.703125 13.921875 20.71875 10.15625 
Q 24.75 6.390625 31.78125 6.390625 
Q 38.8125 6.390625 42.859375 10.171875 
Q 46.921875 13.96875 46.921875 20.515625 
Q 46.921875 27.09375 42.890625 30.859375 
Q 38.875 34.625 31.78125 34.625 
z
M 21.921875 38.8125 
Q 15.578125 40.375 12.03125 44.71875 
Q 8.5 49.078125 8.5 55.328125 
Q 8.5 64.0625 14.71875 69.140625 
Q 20.953125 74.21875 31.78125 74.21875 
Q 42.671875 74.21875 48.875 69.140625 
Q 55.078125 64.0625 55.078125 55.328125 
Q 55.078125 49.078125 51.53125 44.71875 
Q 48 40.375 41.703125 38.8125 
Q 48.828125 37.15625 52.796875 32.3125 
Q 56.78125 27.484375 56.78125 20.515625 
Q 56.78125 9.90625 50.3125 4.234375 
Q 43.84375 -1.421875 31.78125 -1.421875 
Q 19.734375 -1.421875 13.25 4.234375 
Q 6.78125 9.90625 6.78125 20.515625 
Q 6.78125 27.484375 10.78125 32.3125 
Q 14.796875 37.15625 21.921875 38.8125 
z
M 18.3125 54.390625 
Q 18.3125 48.734375 21.84375 45.5625 
Q 25.390625 42.390625 31.78125 42.390625 
Q 38.140625 42.390625 41.71875 45.5625 
Q 45.3125 48.734375 45.3125 54.390625 
Q 45.3125 60.0625 41.71875 63.234375 
Q 38.140625 66.40625 31.78125 66.40625 
Q 25.390625 66.40625 21.84375 63.234375 
Q 18.3125 60.0625 18.3125 54.390625 
z
" id="DejaVuSans-38"/>
    </defs>
    <g transform="translate(198.227293 128.438278)scale(0.1 -0.1)">
     <use xlink:href="#DejaVuSans-38"/>
    </g>
   </g>
   <g id="text_10">
    <!-- 9 -->
    <defs>
     <path d="M 10.984375 1.515625 
L 10.984375 10.5 
Q 14.703125 8.734375 18.5 7.8125 
Q 22.3125 6.890625 25.984375 6.890625 
Q 35.75 6.890625 40.890625 13.453125 
Q 46.046875 20.015625 46.78125 33.40625 
Q 43.953125 29.203125 39.59375 26.953125 
Q 35.25 24.703125 29.984375 24.703125 
Q 19.046875 24.703125 12.671875 31.3125 
Q 6.296875 37.9375 6.296875 49.421875 
Q 6.296875 60.640625 12.9375 67.421875 
Q 19.578125 74.21875 30.609375 74.21875 
Q 43.265625 74.21875 49.921875 64.515625 
Q 56.59375 54.828125 56.59375 36.375 
Q 56.59375 19.140625 48.40625 8.859375 
Q 40.234375 -1.421875 26.421875 -1.421875 
Q 22.703125 -1.421875 18.890625 -0.6875 
Q 15.09375 0.046875 10.984375 1.515625 
z
M 30.609375 32.421875 
Q 37.25 32.421875 41.125 36.953125 
Q 45.015625 41.5 45.015625 49.421875 
Q 45.015625 57.28125 41.125 61.84375 
Q 37.25 66.40625 30.609375 66.40625 
Q 23.96875 66.40625 20.09375 61.84375 
Q 16.21875 57.28125 16.21875 49.421875 
Q 16.21875 41.5 20.09375 36.953125 
Q 23.96875 32.421875 30.609375 32.421875 
z
" id="DejaVuSans-39"/>
    </defs>
    <g transform="translate(244.572707 128.438278)scale(0.1 -0.1)">
     <use xlink:href="#DejaVuSans-39"/>
    </g>
   </g>
   <g id="text_11">
    <!-- 10 -->
    <g transform="translate(284.709014 151.610986)scale(0.1 -0.1)">
     <use xlink:href="#DejaVuSans-31"/>
     <use x="63.623047" xlink:href="#DejaVuSans-30"/>
    </g>
   </g>
   <g id="text_12">
    <!-- 11 -->
    <g transform="translate(307.881722 191.747293)scale(0.1 -0.1)">
     <use xlink:href="#DejaVuSans-31"/>
     <use x="63.623047" xlink:href="#DejaVuSans-31"/>
    </g>
   </g>
   <g id="text_13">
    <!-- 12 -->
    <g transform="translate(382.008912 257.955028)scale(0.1 -0.1)">
     <use xlink:href="#DejaVuSans-31"/>
     <use x="63.623047" xlink:href="#DejaVuSans-32"/>
    </g>
   </g>
   <g id="text_14">
    <!-- 13 -->
    <g transform="translate(338.973883 332.493883)scale(0.1 -0.1)">
     <use xlink:href="#DejaVuSans-31"/>
     <use x="63.623047" xlink:href="#DejaVuSans-33"/>
    </g>
   </g>
   <g id="text_15">
    <!-- 14 -->
    <g transform="translate(264.435028 375.528912)scale(0.1 -0.1)">
     <use xlink:href="#DejaVuSans-31"/>
     <use x="63.623047" xlink:href="#DejaVuSans-34"/>
    </g>
   </g>
   <g id="text_16">
    <!-- 15 -->
    <g transform="translate(178.364972 375.528912)scale(0.1 -0.1)">
     <use xlink:href="#DejaVuSans-31"/>
     <use x="63.623047" xlink:href="#DejaVuSans-35"/>
    </g>
   </g>
   <g id="text_17">
    <!-- 16 -->
    <g transform="translate(103.826117 332.493883)scale(0.1 -0.1)">
     <use xlink:href="#DejaVuSans-31"/>
     <use x="63.623047" xlink:href="#DejaVuSans-36"/>
    </g>
   </g>
   <g id="text_18">
    <!-- 17 -->
    <g transform="translate(60.791088 257.955028)scale(0.1 -0.1)">
     <use xlink:href="#DejaVuSans-31"/>
     <use x="63.623047" xlink:href="#DejaVuSans-37"/>
    </g>
   </g>
   <g id="text_19">
    <!-- 18 -->
    <g transform="translate(60.791088 171.884972)scale(0.1 -0.1)">
     <use xlink:href="#DejaVuSans-31"/>
     <use x="63.623047" xlink:href="#DejaVuSans-38"/>
    </g>
   </g>
   <g id="text_20">
    <!-- 19 -->
    <g transform="translate(103.826117 97.346117)scale(0.1 -0.1)">
     <use xlink:href="#DejaVuSans-31"/>
     <use x="63.623047" xlink:href="#DejaVuSans-39"/>
    </g>
   </g>
   <g id="text_21">
    <!-- 20 -->
    <g transform="translate(178.364972 54.311088)scale(0.1 -0.1)">
     <use xlink:href="#DejaVuSans-32"/>
     <use x="63.623047" xlink:href="#DejaVuSans-30"/>
    </g>
   </g>
   <g id="text_22">
    <!-- 21 -->
    <g transform="translate(264.435028 54.311088)scale(0.1 -0.1)">
     <use xlink:href="#DejaVuSans-32"/>
     <use x="63.623047" xlink:href="#DejaVuSans-31"/>
    </g>
   </g>
   <g id="text_23">
    <!-- 22 -->
    <g transform="translate(338.973883 97.346117)scale(0.1 -0.1)">
     <use xlink:href="#DejaVuSans-32"/>
     <use x="63.623047" xlink:href="#DejaVuSans-32"/>
    </g>
   </g>
   <g id="text_24">
    <!-- 23 -->
    <g transform="translate(382.008912 171.884972)scale(0.1 -0.1)">
     <use xlink:href="#DejaVuSans-32"/>
     <use x="63.623047" xlink:href="#DejaVuSans-33"/>
    </g>
   </g>
  </g>
 </g>
 <defs>
  <clipPath id="pff0625f6fb">
   <rect height="326.16" width="326.16" x="58.32" y="51.84"/>
  </clipPath>
 </defs>
</svg>
